<mxfile host="app.diagrams.net" agent="Mozilla/5.0 (Windows NT 10.0; Win64; x64) AppleWebKit/537.36 (KHTML, like Gecko) Chrome/128.0.0.0 Safari/537.36 Edg/128.0.0.0" version="24.7.14">
  <diagram name="Page-1" id="a9eDFLZs0uPptSiXM21m">
    <mxGraphModel dx="657" dy="784" grid="1" gridSize="10" guides="1" tooltips="1" connect="1" arrows="1" fold="1" page="1" pageScale="1" pageWidth="827" pageHeight="1169" math="0" shadow="0">
      <root>
        <mxCell id="0" />
        <mxCell id="1" parent="0" />
        <mxCell id="zbCrqSj2yJn5MyzEJaYR-2" value="Actor" style="shape=umlActor;verticalLabelPosition=bottom;verticalAlign=top;html=1;outlineConnect=0;" vertex="1" parent="1">
          <mxGeometry x="60" y="280" width="130" height="180" as="geometry" />
        </mxCell>
        <mxCell id="zbCrqSj2yJn5MyzEJaYR-3" value="" style="rounded=0;whiteSpace=wrap;html=1;rotation=-90;" vertex="1" parent="1">
          <mxGeometry x="150" y="260" width="480" height="290" as="geometry" />
        </mxCell>
        <mxCell id="zbCrqSj2yJn5MyzEJaYR-4" value="&lt;font style=&quot;font-size: 18px;&quot;&gt;Bouilloire éléctrique&lt;/font&gt;" style="text;html=1;align=center;verticalAlign=middle;whiteSpace=wrap;rounded=0;" vertex="1" parent="1">
          <mxGeometry x="190" y="180" width="400" height="30" as="geometry" />
        </mxCell>
        <mxCell id="zbCrqSj2yJn5MyzEJaYR-5" value="" style="ellipse;whiteSpace=wrap;html=1;" vertex="1" parent="1">
          <mxGeometry x="300" y="240" width="180" height="80" as="geometry" />
        </mxCell>
        <mxCell id="zbCrqSj2yJn5MyzEJaYR-6" value="" style="ellipse;whiteSpace=wrap;html=1;" vertex="1" parent="1">
          <mxGeometry x="300" y="530" width="180" height="80" as="geometry" />
        </mxCell>
        <mxCell id="zbCrqSj2yJn5MyzEJaYR-7" value="" style="ellipse;whiteSpace=wrap;html=1;" vertex="1" parent="1">
          <mxGeometry x="297.5" y="380" width="185" height="80" as="geometry" />
        </mxCell>
        <mxCell id="zbCrqSj2yJn5MyzEJaYR-8" value="" style="endArrow=classic;html=1;rounded=0;entryX=0.5;entryY=1;entryDx=0;entryDy=0;" edge="1" parent="1" source="zbCrqSj2yJn5MyzEJaYR-7" target="zbCrqSj2yJn5MyzEJaYR-5">
          <mxGeometry width="50" height="50" relative="1" as="geometry">
            <mxPoint x="365" y="370" as="sourcePoint" />
            <mxPoint x="415" y="320" as="targetPoint" />
          </mxGeometry>
        </mxCell>
        <mxCell id="zbCrqSj2yJn5MyzEJaYR-9" value="" style="endArrow=classic;html=1;rounded=0;entryX=0.5;entryY=1;entryDx=0;entryDy=0;" edge="1" parent="1" target="zbCrqSj2yJn5MyzEJaYR-7">
          <mxGeometry width="50" height="50" relative="1" as="geometry">
            <mxPoint x="389.5" y="530" as="sourcePoint" />
            <mxPoint x="389.5" y="470" as="targetPoint" />
          </mxGeometry>
        </mxCell>
        <mxCell id="zbCrqSj2yJn5MyzEJaYR-10" value="&lt;h1 style=&quot;margin-top: 0px;&quot;&gt;Heading&lt;/h1&gt;&lt;p&gt;&lt;span style=&quot;background-color: initial;&quot;&gt;Arreter automatiquement le chauffage&lt;/span&gt;&amp;nbsp;&lt;/p&gt;&lt;p&gt;bouillir de l&#39;eau de manière automatique&amp;nbsp;&lt;/p&gt;&lt;p&gt;arreter manuellement le chauffage&lt;/p&gt;" style="text;html=1;whiteSpace=wrap;overflow=hidden;rounded=0;" vertex="1" parent="1">
          <mxGeometry x="560" y="270" width="220" height="220" as="geometry" />
        </mxCell>
      </root>
    </mxGraphModel>
  </diagram>
</mxfile>
